<svg width="213" height="54" viewBox="0 0 213 54" fill="none" xmlns="http://www.w3.org/2000/svg">
<g clip-path="url(#clip0_438_295)">
<rect width="213" height="54" fill="#000105"/>
<path d="M27.8713 19.5656C23.4158 19.3245 20.9406 21.7356 18.2178 20.7712C16.3959 20.1258 15.5715 14.4066 15.2253 10.6926C15.0883 9.22243 16.574 8.19734 17.9272 8.78821L20.4909 9.90766C21.4445 10.3241 22.5581 9.93967 23.0518 9.02366L25.5267 4.43171C26.2996 2.99768 28.3709 3.03976 29.0849 4.50399L31.2967 9.03972C31.7425 9.95392 32.8071 10.3964 33.7539 10.0249C34.6715 9.6649 35.4859 9.30131 36.5633 8.77354C38.0186 8.06064 39.6942 9.24035 39.4724 10.8456L38.3139 19.2287C38.2831 19.4517 38.218 19.6716 38.0708 19.842C37.8245 20.127 37.3347 20.53 36.5346 20.53" stroke="#CC8CD8"/>
<path d="M63 27H49.0909M49.0909 27H31C29.8954 27 29 27.8954 29 29V47M49.0909 27V47" stroke="white" stroke-width="5"/>
<path d="M86.776 30.168C88.3333 30.168 89.7413 30.5307 91 31.256C92.2587 31.96 93.24 32.9627 93.944 34.264C94.6693 35.544 95.032 37.0053 95.032 38.648C95.032 40.2907 94.6693 41.752 93.944 43.032C93.24 44.312 92.2587 45.3147 91 46.04C89.7413 46.7653 88.3333 47.128 86.776 47.128C85.2827 47.128 83.928 46.776 82.712 46.072C81.5173 45.3467 80.5893 44.344 79.928 43.064V47H78.392V23.256H79.992V34.104C80.6533 32.8667 81.5813 31.9067 82.776 31.224C83.9707 30.52 85.304 30.168 86.776 30.168ZM86.68 45.688C87.96 45.688 89.112 45.3893 90.136 44.792C91.16 44.1947 91.96 43.3627 92.536 42.296C93.1333 41.2293 93.432 40.0133 93.432 38.648C93.432 37.2827 93.1333 36.0667 92.536 35C91.96 33.9333 91.16 33.1013 90.136 32.504C89.112 31.9067 87.96 31.608 86.68 31.608C85.4 31.608 84.248 31.9067 83.224 32.504C82.2213 33.1013 81.4213 33.9333 80.824 35C80.248 36.0667 79.96 37.2827 79.96 38.648C79.96 40.0133 80.248 41.2293 80.824 42.296C81.4213 43.3627 82.2213 44.1947 83.224 44.792C84.248 45.3893 85.4 45.688 86.68 45.688ZM114.61 30.296V47H113.074V43.416C112.519 44.5893 111.698 45.5067 110.61 46.168C109.522 46.808 108.242 47.128 106.77 47.128C104.594 47.128 102.887 46.52 101.65 45.304C100.412 44.088 99.7938 42.3387 99.7938 40.056V30.296H101.394V39.928C101.394 41.8053 101.874 43.2347 102.834 44.216C103.794 45.1973 105.148 45.688 106.898 45.688C108.775 45.688 110.258 45.1013 111.346 43.928C112.455 42.7547 113.01 41.176 113.01 39.192V30.296H114.61ZM122.928 33.944C123.44 32.728 124.24 31.8 125.328 31.16C126.416 30.4987 127.739 30.168 129.296 30.168V31.736L128.912 31.704C127.056 31.704 125.605 32.2907 124.56 33.464C123.515 34.616 122.992 36.2267 122.992 38.296V47H121.392V30.296H122.928V33.944ZM140.396 45.688C141.484 45.688 142.487 45.496 143.404 45.112C144.343 44.7067 145.122 44.12 145.74 43.352L146.668 44.408C145.943 45.304 145.036 45.9867 143.948 46.456C142.86 46.904 141.666 47.128 140.364 47.128C138.7 47.128 137.207 46.7653 135.884 46.04C134.583 45.3147 133.559 44.312 132.812 43.032C132.087 41.752 131.724 40.2907 131.724 38.648C131.724 37.0053 132.066 35.544 132.748 34.264C133.452 32.984 134.423 31.9813 135.66 31.256C136.898 30.5307 138.295 30.168 139.852 30.168C141.303 30.168 142.604 30.5093 143.756 31.192C144.93 31.8533 145.858 32.7813 146.54 33.976C147.244 35.1493 147.628 36.472 147.692 37.944L133.58 40.696C133.986 42.232 134.796 43.448 136.012 44.344C137.228 45.24 138.69 45.688 140.396 45.688ZM139.852 31.576C138.594 31.576 137.463 31.8747 136.46 32.472C135.458 33.048 134.679 33.8693 134.124 34.936C133.57 35.9813 133.292 37.176 133.292 38.52C133.292 38.7547 133.314 39.0853 133.356 39.512L146.092 37.016C145.943 36.0133 145.591 35.096 145.036 34.264C144.482 33.432 143.756 32.7813 142.86 32.312C141.964 31.8213 140.962 31.576 139.852 31.576ZM167.49 30.296V47H165.922V43.064C165.261 44.3653 164.333 45.368 163.138 46.072C161.943 46.776 160.589 47.128 159.074 47.128C157.517 47.128 156.109 46.7653 154.85 46.04C153.591 45.3147 152.599 44.312 151.874 43.032C151.17 41.752 150.818 40.2907 150.818 38.648C150.818 37.0053 151.17 35.544 151.874 34.264C152.599 32.9627 153.591 31.96 154.85 31.256C156.109 30.5307 157.517 30.168 159.074 30.168C160.567 30.168 161.901 30.52 163.074 31.224C164.269 31.928 165.207 32.9093 165.89 34.168V30.296H167.49ZM159.17 45.688C160.45 45.688 161.591 45.3893 162.594 44.792C163.618 44.1947 164.418 43.3627 164.994 42.296C165.591 41.2293 165.89 40.0133 165.89 38.648C165.89 37.2827 165.591 36.0667 164.994 35C164.418 33.9333 163.618 33.1013 162.594 32.504C161.591 31.9067 160.45 31.608 159.17 31.608C157.89 31.608 156.738 31.9067 155.714 32.504C154.711 33.1013 153.911 33.9333 153.314 35C152.738 36.0667 152.45 37.2827 152.45 38.648C152.45 40.0133 152.738 41.2293 153.314 42.296C153.911 43.3627 154.711 44.1947 155.714 44.792C156.738 45.3893 157.89 45.688 159.17 45.688ZM188.86 30.296V47H187.324V43.416C186.769 44.5893 185.948 45.5067 184.86 46.168C183.772 46.808 182.492 47.128 181.02 47.128C178.844 47.128 177.137 46.52 175.9 45.304C174.662 44.088 174.044 42.3387 174.044 40.056V30.296H175.644V39.928C175.644 41.8053 176.124 43.2347 177.084 44.216C178.044 45.1973 179.398 45.688 181.148 45.688C183.025 45.688 184.508 45.1013 185.596 43.928C186.705 42.7547 187.26 41.176 187.26 39.192V30.296H188.86Z" fill="white"/>
<path d="M111.976 24V18.4H112.384V23.632H115.608V24H111.976ZM117 24L119.576 18.4H119.984L122.56 24H122.12L119.688 18.656H119.864L117.44 24H117ZM117.944 22.424L118.08 22.08H121.432L121.568 22.424H117.944ZM124.856 24V18.4H127.072C127.664 18.4 128.184 18.52 128.632 18.76C129.08 19 129.427 19.3307 129.672 19.752C129.923 20.1733 130.048 20.656 130.048 21.2C130.048 21.744 129.923 22.2267 129.672 22.648C129.427 23.0693 129.08 23.4 128.632 23.64C128.184 23.88 127.664 24 127.072 24H124.856ZM125.264 23.632H127.04C127.568 23.632 128.027 23.528 128.416 23.32C128.806 23.112 129.107 22.8267 129.32 22.464C129.534 22.096 129.64 21.6747 129.64 21.2C129.64 20.7253 129.534 20.3067 129.32 19.944C129.107 19.576 128.806 19.288 128.416 19.08C128.027 18.872 127.568 18.768 127.04 18.768H125.264V23.632ZM133.824 24V21.968L133.92 22.232L131.568 18.4H132.016L134.152 21.88H133.928L136.064 18.4H136.488L134.136 22.232L134.232 21.968V24H133.824ZM144.51 24.04C144.089 24.04 143.7 23.9707 143.342 23.832C142.985 23.688 142.673 23.488 142.406 23.232C142.145 22.976 141.942 22.6773 141.798 22.336C141.654 21.9893 141.582 21.6107 141.582 21.2C141.582 20.7893 141.654 20.4133 141.798 20.072C141.942 19.7253 142.148 19.424 142.414 19.168C142.681 18.912 142.99 18.7147 143.342 18.576C143.7 18.432 144.092 18.36 144.518 18.36C144.924 18.36 145.3 18.424 145.646 18.552C145.993 18.68 146.289 18.872 146.534 19.128L146.278 19.4C146.033 19.16 145.764 18.9893 145.47 18.888C145.182 18.7867 144.868 18.736 144.526 18.736C144.164 18.736 143.828 18.7973 143.518 18.92C143.209 19.0427 142.94 19.216 142.71 19.44C142.481 19.664 142.302 19.9253 142.174 20.224C142.052 20.5227 141.99 20.848 141.99 21.2C141.99 21.552 142.052 21.8773 142.174 22.176C142.302 22.4747 142.481 22.736 142.71 22.96C142.94 23.184 143.209 23.3573 143.518 23.48C143.828 23.6027 144.164 23.664 144.526 23.664C144.857 23.664 145.169 23.6133 145.462 23.512C145.761 23.4107 146.033 23.2427 146.278 23.008L146.51 23.32C146.26 23.56 145.958 23.7413 145.606 23.864C145.26 23.9813 144.894 24.04 144.51 24.04ZM146.51 23.32L146.118 23.272V21.224H146.51V23.32ZM148.65 24L151.226 18.4H151.634L154.21 24H153.77L151.338 18.656H151.514L149.09 24H148.65ZM149.594 22.424L149.73 22.08H153.082L153.218 22.424H149.594ZM156.506 24V18.4H156.914V24H156.506ZM160.146 24V18.4H162.362C162.954 18.4 163.474 18.52 163.922 18.76C164.37 19 164.716 19.3307 164.962 19.752C165.212 20.1733 165.338 20.656 165.338 21.2C165.338 21.744 165.212 22.2267 164.962 22.648C164.716 23.0693 164.37 23.4 163.922 23.64C163.474 23.88 162.954 24 162.362 24H160.146ZM160.554 23.632H162.33C162.858 23.632 163.316 23.528 163.706 23.32C164.095 23.112 164.396 22.8267 164.61 22.464C164.823 22.096 164.93 21.6747 164.93 21.2C164.93 20.7253 164.823 20.3067 164.61 19.944C164.396 19.576 164.095 19.288 163.706 19.08C163.316 18.872 162.858 18.768 162.33 18.768H160.554V23.632ZM170.411 24.04C169.995 24.04 169.608 23.9707 169.251 23.832C168.899 23.688 168.59 23.488 168.323 23.232C168.062 22.9707 167.859 22.6693 167.715 22.328C167.571 21.9813 167.499 21.6053 167.499 21.2C167.499 20.7947 167.571 20.4213 167.715 20.08C167.859 19.7333 168.062 19.432 168.323 19.176C168.59 18.9147 168.899 18.7147 169.251 18.576C169.608 18.432 169.995 18.36 170.411 18.36C170.827 18.36 171.211 18.432 171.563 18.576C171.92 18.7147 172.23 18.912 172.491 19.168C172.752 19.424 172.955 19.7253 173.099 20.072C173.248 20.4133 173.323 20.7893 173.323 21.2C173.323 21.6107 173.248 21.9893 173.099 22.336C172.955 22.6773 172.752 22.976 172.491 23.232C172.23 23.488 171.92 23.688 171.563 23.832C171.211 23.9707 170.827 24.04 170.411 24.04ZM170.411 23.664C170.768 23.664 171.099 23.6027 171.403 23.48C171.707 23.3573 171.971 23.184 172.195 22.96C172.419 22.736 172.592 22.4747 172.715 22.176C172.843 21.8773 172.907 21.552 172.907 21.2C172.907 20.8427 172.843 20.5173 172.715 20.224C172.592 19.9253 172.419 19.664 172.195 19.44C171.971 19.216 171.707 19.0427 171.403 18.92C171.099 18.7973 170.768 18.736 170.411 18.736C170.054 18.736 169.723 18.7973 169.419 18.92C169.115 19.0427 168.848 19.216 168.619 19.44C168.395 19.664 168.219 19.9253 168.091 20.224C167.968 20.5173 167.907 20.8427 167.907 21.2C167.907 21.552 167.968 21.8773 168.091 22.176C168.219 22.4747 168.395 22.736 168.619 22.96C168.848 23.184 169.115 23.3573 169.419 23.48C169.723 23.6027 170.054 23.664 170.411 23.664ZM178.21 24.04C177.517 24.04 176.97 23.8373 176.57 23.432C176.17 23.0267 175.97 22.424 175.97 21.624V18.4H176.378V21.608C176.378 22.3067 176.538 22.824 176.858 23.16C177.178 23.496 177.632 23.664 178.218 23.664C178.8 23.664 179.25 23.496 179.57 23.16C179.89 22.824 180.05 22.3067 180.05 21.608V18.4H180.458V21.624C180.458 22.424 180.258 23.0267 179.858 23.432C179.458 23.8373 178.909 24.04 178.21 24.04ZM183.994 22.584L183.978 22.072L187.546 18.4H188.042L185.546 20.984L185.314 21.232L183.994 22.584ZM183.642 24V18.4H184.05V24H183.642ZM187.714 24L185.194 21.12L185.474 20.824L188.21 24H187.714Z" fill="white"/>
</g>
<defs>
<clipPath id="clip0_438_295">
<rect width="213" height="54" fill="white"/>
</clipPath>
</defs>
</svg>
