<svg xmlns="http://www.w3.org/2000/svg" version="1.1" xmlns:xlink="http://www.w3.org/1999/xlink" width="1000" height="1000"><g clip-path="url(#SvgjsClipPath1359)"><rect width="1000" height="1000" fill="#040000"></rect><g transform="matrix(56.25,0,0,56.25,50,50)"><svg xmlns="http://www.w3.org/2000/svg" version="1.1" xmlns:xlink="http://www.w3.org/1999/xlink" width="16" height="16"><svg width="16" height="16" viewBox="0 0 16 16" fill="none" xmlns="http://www.w3.org/2000/svg">
<rect width="16" height="16" rx="3" fill="#000105"></rect>
<path d="M8.1485 11.4262C6.36632 11.3298 5.37624 12.2942 4.28713 11.9085C3.32033 11.566 3.05572 7.65162 3.00847 6.77673C3.0041 6.69564 3.08657 6.64181 3.161 6.67431L5.77848 7.81726C5.83093 7.84016 5.89218 7.81902 5.91933 7.76864L7.84877 4.18874C7.89128 4.10987 8.0052 4.11219 8.04447 4.19272L9.78865 7.76952C9.81316 7.81981 9.87165 7.84365 9.92433 7.82483C10.9042 7.47478 11.3311 7.27068 12.8109 6.50855C12.8902 6.46774 12.9832 6.53281 12.971 6.6211L12.3095 11.4077C12.3078 11.42 12.3041 11.4318 12.2977 11.4424C12.2535 11.5157 12.0478 11.812 11.6139 11.812" stroke="#CC8CD8" stroke-linecap="round"></path>
</svg></svg></g></g><defs><clipPath id="SvgjsClipPath1359"><rect width="1000" height="1000" x="0" y="0" rx="200" ry="200"></rect></clipPath></defs></svg>